<svg width="512" height="267" viewBox="0 0 512 267" fill="none" xmlns="http://www.w3.org/2000/svg">
<path d="M44.5497 158.473C44.5497 156.927 44.3675 155.794 44.0034 155.072C43.6914 154.299 43.0673 153.758 42.1311 153.449C41.1947 153.139 39.7123 152.985 37.6837 152.985C37.5277 152.985 37.4498 152.83 37.4498 152.521C37.4498 152.212 37.5277 152.057 37.6837 152.057L41.4289 152.134C43.7175 152.237 45.616 152.289 47.1242 152.289C48.5287 152.289 50.3231 152.237 52.5078 152.134L56.3308 152.057C56.4868 152.057 56.5647 152.212 56.5647 152.521C56.5647 152.83 56.4868 152.985 56.3308 152.985C54.3542 152.985 52.898 153.139 51.9615 153.449C51.0254 153.706 50.3751 154.196 50.0111 154.917C49.699 155.639 49.543 156.773 49.543 158.319V194.11C49.543 195.656 49.699 196.815 50.0111 197.588C50.3751 198.31 51.0254 198.799 51.9615 199.057C52.898 199.315 54.3542 199.444 56.3308 199.444C56.4868 199.444 56.5647 199.598 56.5647 199.907C56.5647 200.217 56.4868 200.371 56.3308 200.371C54.7182 200.371 53.4439 200.346 52.5078 200.294L47.1242 200.217L41.4289 200.294C40.4925 200.346 39.2443 200.371 37.6837 200.371C37.5277 200.371 37.4498 200.217 37.4498 199.907C37.4498 199.598 37.5277 199.444 37.6837 199.444C39.7123 199.444 41.1947 199.315 42.1311 199.057C43.0673 198.799 43.6914 198.31 44.0034 197.588C44.3675 196.815 44.5497 195.656 44.5497 194.11V158.473ZM11.8591 174.398H46.7343V176.021H11.8591V174.398ZM9.5965 158.319C9.5965 156.773 9.41447 155.639 9.05035 154.917C8.73828 154.196 8.11412 153.706 7.17789 153.449C6.24163 153.139 4.78526 152.985 2.80872 152.985C2.70471 152.985 2.65269 152.83 2.65269 152.521C2.65269 152.212 2.70471 152.057 2.80872 152.057L6.78777 152.134C8.97234 152.237 10.7148 152.289 12.0151 152.289C13.5235 152.289 15.422 152.237 17.7106 152.134L21.4556 152.057C21.5596 152.057 21.6117 152.212 21.6117 152.521C21.6117 152.83 21.5596 152.985 21.4556 152.985C19.4791 152.985 17.9967 153.139 17.0085 153.449C16.0722 153.758 15.422 154.299 15.0579 155.072C14.7458 155.794 14.5898 156.927 14.5898 158.473V194.11C14.5898 195.656 14.7458 196.815 15.0579 197.588C15.422 198.31 16.0722 198.799 17.0085 199.057C17.9447 199.315 19.4271 199.444 21.4556 199.444C21.5596 199.444 21.6117 199.598 21.6117 199.907C21.6117 200.217 21.5596 200.371 21.4556 200.371C19.8432 200.371 18.5689 200.346 17.6326 200.294L12.0151 200.217L6.63172 200.294C5.69549 200.346 4.39514 200.371 2.73071 200.371C2.62669 200.371 2.57467 200.217 2.57467 199.907C2.57467 199.598 2.62669 199.444 2.73071 199.444C4.70722 199.444 6.16362 199.315 7.09985 199.057C8.08812 198.799 8.73828 198.31 9.05035 197.588C9.41447 196.815 9.5965 195.656 9.5965 194.11V158.319ZM87.7565 201.299C82.9192 201.299 78.602 200.191 74.8051 197.975C71.0602 195.707 68.1475 192.667 66.0669 188.853C64.0383 184.988 63.024 180.788 63.024 176.253C63.024 170.945 64.3765 166.41 67.0812 162.648C69.7859 158.834 73.2446 155.974 77.4578 154.067C81.723 152.16 86.0661 151.207 90.4871 151.207C95.4285 151.207 99.7716 152.366 103.517 154.686C107.262 156.953 110.122 159.968 112.099 163.73C114.128 167.492 115.142 171.486 115.142 175.712C115.142 180.401 113.893 184.704 111.397 188.621C108.9 192.538 105.545 195.63 101.332 197.897C97.1709 200.165 92.6459 201.299 87.7565 201.299ZM90.4871 199.675C94.0242 199.675 97.197 198.825 100.006 197.124C102.866 195.424 105.103 192.95 106.715 189.703C108.38 186.405 109.212 182.463 109.212 177.876C109.212 173.032 108.302 168.729 106.481 164.967C104.661 161.205 102.086 158.267 98.7573 156.154C95.4805 154.041 91.6316 152.985 87.2103 152.985C81.4888 152.985 77.0156 154.814 73.7908 158.473C70.566 162.132 68.9535 167.157 68.9535 173.547C68.9535 178.391 69.8638 182.824 71.6843 186.843C73.5049 190.811 76.0536 193.955 79.3304 196.274C82.6072 198.542 86.3262 199.675 90.4871 199.675ZM129 153.835L130.873 153.99L130.092 191.945C130.04 194.677 130.509 196.609 131.497 197.743C132.485 198.877 134.227 199.444 136.724 199.444C136.828 199.444 136.88 199.598 136.88 199.907C136.88 200.217 136.828 200.371 136.724 200.371C135.268 200.371 134.149 200.346 133.369 200.294L129.156 200.217L125.099 200.294C124.371 200.346 123.331 200.371 121.978 200.371C121.874 200.371 121.822 200.217 121.822 199.907C121.822 199.598 121.874 199.444 121.978 199.444C124.163 199.444 125.723 198.877 126.659 197.743C127.648 196.558 128.168 194.625 128.22 191.945L129 153.835ZM182.288 199.444C182.444 199.444 182.522 199.598 182.522 199.907C182.522 200.217 182.444 200.371 182.288 200.371C180.676 200.371 179.401 200.346 178.465 200.294L173.082 200.217L168.088 200.294C167.256 200.346 166.086 200.371 164.577 200.371C164.473 200.371 164.421 200.217 164.421 199.907C164.421 199.598 164.473 199.444 164.577 199.444C166.346 199.444 167.646 199.315 168.478 199.057C169.363 198.748 169.935 198.233 170.195 197.511C170.507 196.789 170.611 195.656 170.507 194.11L169.024 156.773L171.599 153.217L151.314 199.83C151.21 200.036 151.002 200.139 150.69 200.139C150.43 200.139 150.195 200.036 149.987 199.83L130.405 158.473C129.52 156.567 128.428 155.175 127.127 154.299C125.879 153.423 124.345 152.985 122.524 152.985C122.42 152.985 122.368 152.83 122.368 152.521C122.368 152.212 122.42 152.057 122.524 152.057L125.411 152.134C125.931 152.186 126.659 152.212 127.596 152.212C128.532 152.212 129.312 152.186 129.936 152.134C130.613 152.083 131.133 152.057 131.497 152.057C132.173 152.057 132.719 152.315 133.135 152.83C133.603 153.294 134.253 154.376 135.086 156.077L152.874 193.182L150.456 197.202L169.492 153.99C170.065 152.701 170.845 152.057 171.833 152.057C172.093 152.057 172.458 152.083 172.926 152.134C173.446 152.186 174.122 152.212 174.954 152.212L178.621 152.134C179.193 152.083 180.051 152.057 181.196 152.057C181.3 152.057 181.352 152.212 181.352 152.521C181.352 152.83 181.3 152.985 181.196 152.985C178.543 152.985 176.645 153.371 175.5 154.144C174.408 154.866 173.914 156.257 174.018 158.319L175.578 194.11C175.63 195.707 175.812 196.867 176.124 197.588C176.489 198.31 177.113 198.799 177.997 199.057C178.881 199.315 180.311 199.444 182.288 199.444ZM187.434 200.371C187.33 200.371 187.278 200.217 187.278 199.907C187.278 199.598 187.33 199.444 187.434 199.444C189.411 199.444 190.841 199.315 191.725 199.057C192.662 198.799 193.286 198.31 193.598 197.588C193.962 196.815 194.144 195.656 194.144 194.11V158.319C194.144 156.773 193.962 155.639 193.598 154.917C193.286 154.196 192.662 153.706 191.725 153.449C190.841 153.139 189.411 152.985 187.434 152.985C187.33 152.985 187.278 152.83 187.278 152.521C187.278 152.212 187.33 152.057 187.434 152.057H218.798C219.266 152.057 219.501 152.289 219.501 152.753L219.657 162.261C219.657 162.416 219.501 162.519 219.189 162.57C218.929 162.57 218.798 162.493 218.798 162.338C218.642 159.607 217.81 157.494 216.302 156C214.793 154.454 212.791 153.681 210.294 153.681H205.535C203.715 153.681 202.362 153.835 201.478 154.144C200.594 154.402 199.969 154.866 199.605 155.536C199.293 156.206 199.137 157.262 199.137 158.705V193.8C199.137 195.192 199.293 196.248 199.605 196.97C199.969 197.64 200.568 198.104 201.4 198.361C202.232 198.619 203.532 198.748 205.301 198.748H211.543C214.039 198.748 216.12 197.872 217.784 196.12C219.449 194.367 220.567 191.945 221.139 188.853C221.139 188.75 221.243 188.698 221.451 188.698C221.607 188.698 221.737 188.75 221.841 188.853C221.997 188.905 222.075 188.956 222.075 189.008C221.607 192.255 221.373 195.656 221.373 199.212C221.373 199.624 221.269 199.933 221.061 200.139C220.905 200.294 220.593 200.371 220.125 200.371H187.434ZM215.756 182.36C215.756 180.092 215.183 178.469 214.039 177.49C212.947 176.51 211.1 176.021 208.5 176.021H196.797V174.398H208.734C211.23 174.398 212.999 173.985 214.039 173.161C215.131 172.336 215.678 170.945 215.678 168.986C215.678 168.883 215.834 168.832 216.146 168.832C216.458 168.832 216.614 168.883 216.614 168.986L216.536 175.248C216.536 176.742 216.562 177.876 216.614 178.649L216.692 182.36C216.692 182.463 216.536 182.514 216.224 182.514C215.912 182.514 215.756 182.463 215.756 182.36ZM253.682 200.294C253.63 200.5 253.344 200.603 252.824 200.603C252.408 200.603 252.122 200.5 251.966 200.294L232.539 158.473C231.602 156.412 230.666 154.995 229.73 154.222C228.794 153.397 227.519 152.985 225.907 152.985C225.751 152.985 225.673 152.83 225.673 152.521C225.673 152.212 225.751 152.057 225.907 152.057L228.872 152.134C230.328 152.237 231.498 152.289 232.383 152.289C234.255 152.289 236.283 152.237 238.468 152.134L241.667 152.057C241.823 152.057 241.901 152.212 241.901 152.521C241.901 152.83 241.823 152.985 241.667 152.985C240.106 152.985 238.936 153.165 238.156 153.526C237.428 153.887 237.064 154.505 237.064 155.381C237.064 156.154 237.324 157.082 237.844 158.164L255.164 195.037L252.356 198.748L262.577 173.47L263.747 175.171L253.682 200.294ZM298.935 152.057C299.038 152.057 299.089 152.212 299.089 152.521C299.089 152.83 299.038 152.985 298.935 152.985C297.165 152.985 295.632 153.449 294.33 154.376C293.031 155.304 291.913 156.876 290.975 159.092L274.357 200.294C274.305 200.5 274.02 200.603 273.5 200.603C273.082 200.603 272.796 200.5 272.64 200.294L253.292 158.473C252.356 156.463 251.419 155.046 250.483 154.222C249.547 153.397 248.325 152.985 246.816 152.985C246.66 152.985 246.582 152.83 246.582 152.521C246.582 152.212 246.66 152.057 246.816 152.057L249.781 152.134C251.133 152.237 252.252 152.289 253.136 152.289C254.592 152.289 256.101 152.237 257.661 152.134L259.768 152.057C259.924 152.057 260.002 152.212 260.002 152.521C260.002 152.83 259.924 152.985 259.768 152.985C258.831 152.985 258.155 153.088 257.739 153.294C257.323 153.449 257.115 153.758 257.115 154.222C257.115 154.84 257.583 156.154 258.519 158.164L275.917 195.037L273.109 198.748L289.258 158.783C289.676 157.7 289.884 156.85 289.884 156.231C289.884 155.098 289.39 154.273 288.402 153.758C287.464 153.242 285.982 152.985 283.955 152.985C283.799 152.985 283.721 152.83 283.721 152.521C283.721 152.212 283.799 152.057 283.955 152.057L287.232 152.134C289 152.237 290.587 152.289 291.991 152.289C293.031 152.289 294.228 152.237 295.58 152.134L298.935 152.057ZM268.896 158.628C269.519 157.236 269.832 156.103 269.832 155.226C269.832 153.732 268.714 152.985 266.477 152.985C266.321 152.985 266.243 152.83 266.243 152.521C266.243 152.212 266.321 152.057 266.477 152.057L268.272 152.134C269.312 152.237 270.403 152.289 271.549 152.289C272.589 152.289 273.785 152.237 275.138 152.134L278.337 152.057C278.442 152.057 278.493 152.212 278.493 152.521C278.493 152.83 278.442 152.985 278.337 152.985C276.569 152.985 275.06 153.449 273.812 154.376C272.616 155.252 271.549 156.824 270.614 159.092L264.137 175.171L262.966 173.47L268.896 158.628ZM325.171 201.299C320.334 201.299 316.015 200.191 312.218 197.975C308.475 195.707 305.562 192.667 303.481 188.853C301.452 184.988 300.439 180.788 300.439 176.253C300.439 170.945 301.789 166.41 304.495 162.648C307.2 158.834 310.657 155.974 314.872 154.067C319.138 152.16 323.479 151.207 327.901 151.207C332.843 151.207 337.184 152.366 340.93 154.686C344.676 156.953 347.535 159.968 349.513 163.73C351.542 167.492 352.555 171.486 352.555 175.712C352.555 180.401 351.307 184.704 348.809 188.621C346.314 192.538 342.959 195.63 338.745 197.897C334.584 200.165 330.059 201.299 325.171 201.299ZM327.901 199.675C331.436 199.675 334.611 198.825 337.419 197.124C340.281 195.424 342.517 192.95 344.129 189.703C345.794 186.405 346.627 182.463 346.627 177.876C346.627 173.032 345.716 168.729 343.894 164.967C342.075 161.205 339.499 158.267 336.171 156.154C332.894 154.041 329.046 152.985 324.624 152.985C318.903 152.985 314.43 154.814 311.204 158.473C307.979 162.132 306.367 167.157 306.367 173.547C306.367 178.391 307.278 182.824 309.097 186.843C310.919 190.811 313.468 193.955 316.745 196.274C320.022 198.542 323.74 199.675 327.901 199.675ZM399.573 200.371C398.271 200.371 395.776 198.181 392.082 193.8C388.441 189.369 384.046 183.287 378.896 175.557L383.267 174.243C387.791 180.685 391.561 185.709 394.58 189.317C397.649 192.873 400.352 195.45 402.693 197.047C405.032 198.645 407.323 199.444 409.56 199.444C409.716 199.444 409.794 199.598 409.794 199.907C409.794 200.217 409.716 200.371 409.56 200.371H399.573ZM379.912 151.825C384.022 151.825 387.193 152.753 389.43 154.608C391.667 156.463 392.785 158.937 392.785 162.029C392.785 164.761 391.979 167.26 390.365 169.527C388.754 171.744 386.568 173.521 383.811 174.861C381.109 176.15 378.196 176.794 375.075 176.794C374.762 176.794 373.59 176.717 371.564 176.562V194.11C371.564 195.707 371.72 196.867 372.03 197.588C372.343 198.31 372.941 198.799 373.825 199.057C374.762 199.315 376.218 199.444 378.196 199.444C378.352 199.444 378.43 199.598 378.43 199.907C378.43 200.217 378.352 200.371 378.196 200.371C376.581 200.371 375.307 200.346 374.372 200.294L368.988 200.217L363.682 200.294C362.747 200.346 361.421 200.371 359.704 200.371C359.599 200.371 359.548 200.217 359.548 199.907C359.548 199.598 359.599 199.444 359.704 199.444C361.679 199.444 363.137 199.315 364.072 199.057C365.01 198.748 365.66 198.233 366.023 197.511C366.387 196.789 366.57 195.656 366.57 194.11V158.319C366.57 156.773 366.387 155.639 366.023 154.917C365.711 154.196 365.088 153.706 364.151 153.449C363.267 153.139 361.836 152.985 359.861 152.985C359.704 152.985 359.626 152.83 359.626 152.521C359.626 152.212 359.704 152.057 359.861 152.057L363.682 152.134C365.867 152.237 367.635 152.289 368.988 152.289C370.133 152.289 371.2 152.263 372.186 152.212C373.175 152.16 374.008 152.109 374.684 152.057C376.66 151.903 378.403 151.825 379.912 151.825ZM387.479 164.271C387.479 160.251 386.568 157.365 384.749 155.613C382.979 153.861 380.378 152.985 376.945 152.985C374.919 152.985 373.515 153.346 372.733 154.067C371.952 154.789 371.564 156.257 371.564 158.473V174.707C372.811 174.913 374.345 175.016 376.166 175.016C380.222 175.016 383.111 174.14 384.827 172.388C386.595 170.636 387.479 167.93 387.479 164.271ZM417.113 153.449C413.887 153.449 411.443 154.273 409.778 155.922C408.166 157.571 406.997 160.38 406.269 164.348C406.269 164.451 406.113 164.503 405.8 164.503C405.539 164.503 405.41 164.451 405.41 164.348C405.617 162.493 405.852 160.071 406.113 157.082C406.372 154.093 406.501 151.851 406.501 150.357C406.501 150.099 406.633 149.97 406.892 149.97C407.204 149.97 407.361 150.099 407.361 150.357C407.361 151.49 408.765 152.057 411.573 152.057C416.046 152.212 421.274 152.289 427.256 152.289C430.325 152.289 433.575 152.237 437.008 152.134L442.314 152.057C444.187 152.057 445.564 151.928 446.448 151.671C447.386 151.413 447.984 150.898 448.243 150.124C448.294 149.918 448.45 149.815 448.711 149.815C448.97 149.815 449.102 149.918 449.102 150.124C448.946 151.619 448.79 153.887 448.633 156.927C448.477 159.968 448.399 162.441 448.399 164.348C448.399 164.451 448.243 164.503 447.93 164.503C447.62 164.503 447.464 164.451 447.464 164.348C447.307 160.328 446.475 157.52 444.966 155.922C443.457 154.273 440.961 153.449 437.477 153.449C435.135 153.449 433.47 153.552 432.484 153.758C431.495 153.964 430.818 154.402 430.455 155.072C430.091 155.742 429.908 156.876 429.908 158.473V194.11C429.908 195.707 430.091 196.867 430.455 197.588C430.818 198.31 431.522 198.799 432.562 199.057C433.602 199.315 435.24 199.444 437.477 199.444C437.633 199.444 437.712 199.598 437.712 199.907C437.712 200.217 437.633 200.371 437.477 200.371C435.761 200.371 434.381 200.346 433.341 200.294L427.256 200.217L421.403 200.294C420.363 200.346 418.935 200.371 417.113 200.371C417.008 200.371 416.957 200.217 416.957 199.907C416.957 199.598 417.008 199.444 417.113 199.444C419.35 199.444 420.988 199.315 422.028 199.057C423.068 198.799 423.772 198.31 424.135 197.588C424.55 196.815 424.758 195.656 424.758 194.11V158.319C424.758 156.721 424.577 155.613 424.214 154.995C423.85 154.325 423.173 153.912 422.184 153.758C421.195 153.552 419.506 153.449 417.113 153.449ZM496.443 158.473C496.443 156.927 496.26 155.794 495.896 155.072C495.584 154.299 494.961 153.758 494.023 153.449C493.088 153.139 491.606 152.985 489.577 152.985C489.421 152.985 489.343 152.83 489.343 152.521C489.343 152.212 489.421 152.057 489.577 152.057L493.323 152.134C495.611 152.237 497.51 152.289 499.017 152.289C500.423 152.289 502.215 152.237 504.401 152.134L508.225 152.057C508.381 152.057 508.459 152.212 508.459 152.521C508.459 152.83 508.381 152.985 508.225 152.985C506.247 152.985 504.792 153.139 503.854 153.449C502.919 153.706 502.269 154.196 501.906 154.917C501.593 155.639 501.437 156.773 501.437 158.319V194.11C501.437 195.656 501.593 196.815 501.906 197.588C502.269 198.31 502.919 198.799 503.854 199.057C504.792 199.315 506.247 199.444 508.225 199.444C508.381 199.444 508.459 199.598 508.459 199.907C508.459 200.217 508.381 200.371 508.225 200.371C506.611 200.371 505.339 200.346 504.401 200.294L499.017 200.217L493.323 200.294C492.385 200.346 491.137 200.371 489.577 200.371C489.421 200.371 489.343 200.217 489.343 199.907C489.343 199.598 489.421 199.444 489.577 199.444C491.606 199.444 493.088 199.315 494.023 199.057C494.961 198.799 495.584 198.31 495.896 197.588C496.26 196.815 496.443 195.656 496.443 194.11V158.473ZM463.753 174.398H498.629V176.021H463.753V174.398ZM461.49 158.319C461.49 156.773 461.309 155.639 460.943 154.917C460.633 154.196 460.008 153.706 459.073 153.449C458.135 153.139 456.68 152.985 454.702 152.985C454.599 152.985 454.546 152.83 454.546 152.521C454.546 152.212 454.599 152.057 454.702 152.057L458.682 152.134C460.865 152.237 462.608 152.289 463.91 152.289C465.416 152.289 467.316 152.237 469.604 152.134L473.349 152.057C473.454 152.057 473.506 152.212 473.506 152.521C473.506 152.83 473.454 152.985 473.349 152.985C471.371 152.985 469.889 153.139 468.903 153.449C467.965 153.758 467.316 154.299 466.952 155.072C466.64 155.794 466.483 156.927 466.483 158.473V194.11C466.483 195.656 466.64 196.815 466.952 197.588C467.316 198.31 467.965 198.799 468.903 199.057C469.838 199.315 471.32 199.444 473.349 199.444C473.454 199.444 473.506 199.598 473.506 199.907C473.506 200.217 473.454 200.371 473.349 200.371C471.738 200.371 470.463 200.346 469.526 200.294L463.91 200.217L458.526 200.294C457.588 200.346 456.289 200.371 454.624 200.371C454.521 200.371 454.467 200.217 454.467 199.907C454.467 199.598 454.521 199.444 454.624 199.444C456.602 199.444 458.057 199.315 458.995 199.057C459.981 198.799 460.633 198.31 460.943 197.588C461.309 196.815 461.49 195.656 461.49 194.11V158.319Z" fill="white"/>
<path d="M512 224.275H0V266.994H512V224.275Z" fill="white"/>
<path d="M29.3174 256.314C28.8216 256.314 27.9054 255.428 26.5688 253.655C25.2323 251.861 23.6154 249.372 21.7183 246.19L24.6933 245.293C26.4826 247.984 27.97 250.088 29.1557 251.604C30.3629 253.121 31.4301 254.221 32.3571 254.904C33.284 255.588 34.1895 255.93 35.0734 255.93C35.1165 255.93 35.138 255.994 35.138 256.122C35.138 256.25 35.1165 256.314 35.0734 256.314H29.3174ZM22.365 236.193C24.3268 236.193 25.8467 236.557 26.9245 237.283C28.0024 237.988 28.5413 238.981 28.5413 240.262C28.5413 241.48 28.1856 242.58 27.4742 243.562C26.7844 244.545 25.879 245.314 24.758 245.869C23.637 246.403 22.4621 246.67 21.2333 246.67C20.3925 246.67 19.7997 246.66 19.4547 246.638V253.719C19.4547 254.381 19.5086 254.862 19.6164 255.161C19.7242 255.46 19.929 255.663 20.2308 255.769C20.5542 255.876 21.0608 255.93 21.7507 255.93C21.7938 255.93 21.8153 255.994 21.8153 256.122C21.8153 256.25 21.7938 256.314 21.7507 256.314C21.0392 256.314 20.4787 256.303 20.0691 256.282L17.6115 256.25L15.2509 256.282C14.8198 256.303 14.2377 256.314 13.5048 256.314C13.4401 256.314 13.4077 256.25 13.4077 256.122C13.4077 255.994 13.4401 255.93 13.5048 255.93C14.1946 255.93 14.6904 255.876 14.9922 255.769C15.3156 255.663 15.5312 255.46 15.639 255.161C15.7683 254.84 15.833 254.36 15.833 253.719V238.885C15.833 238.244 15.7791 237.774 15.6713 237.475C15.5635 237.176 15.348 236.973 15.0246 236.866C14.7012 236.738 14.2054 236.674 13.5371 236.674C13.494 236.674 13.4724 236.61 13.4724 236.482C13.4724 236.354 13.494 236.29 13.5371 236.29L15.2509 236.322C16.2426 236.364 17.0295 236.386 17.6115 236.386C18.3445 236.386 19.1098 236.354 19.9074 236.29C20.1877 236.268 20.5326 236.247 20.9422 236.225C21.3734 236.204 21.8477 236.193 22.365 236.193ZM24.855 241.48C24.855 239.728 24.5963 238.522 24.0789 237.859C23.5615 237.197 22.8178 236.866 21.8477 236.866C20.9853 236.866 20.3709 237.026 20.0045 237.347C19.638 237.667 19.4547 238.201 19.4547 238.949V245.741C19.9721 245.827 20.5973 245.869 21.3303 245.869C22.5806 245.869 23.4753 245.528 24.0142 244.844C24.5747 244.139 24.855 243.018 24.855 241.48ZM60.3362 256.314C60.2716 256.314 60.2392 256.25 60.2392 256.122C60.2392 255.994 60.2716 255.93 60.3362 255.93C61.0261 255.93 61.5219 255.876 61.8237 255.769C62.1471 255.663 62.3627 255.46 62.4705 255.161C62.5783 254.84 62.6322 254.36 62.6322 253.719V238.885C62.6322 238.244 62.5783 237.774 62.4705 237.475C62.3627 237.176 62.1471 236.973 61.8237 236.866C61.5004 236.738 61.0045 236.674 60.3362 236.674C60.2716 236.674 60.2392 236.61 60.2392 236.482C60.2392 236.354 60.2716 236.29 60.3362 236.29H74.0471C74.2626 236.29 74.3704 236.386 74.3704 236.578L74.4351 240.839C74.4351 240.882 74.3704 240.914 74.2411 240.935C74.1333 240.957 74.0686 240.935 74.0471 240.871C73.7021 239.632 73.1201 238.714 72.3009 238.116C71.4817 237.518 70.4038 237.219 69.0672 237.219H68.0971C67.4503 237.219 66.9761 237.358 66.6743 237.635C66.3724 237.913 66.2215 238.34 66.2215 238.917V253.591C66.2215 254.21 66.3401 254.669 66.5772 254.968C66.8144 255.267 67.1916 255.417 67.709 255.417H68.7762C70.4577 255.417 71.805 255.075 72.8183 254.392C73.8315 253.708 74.5752 252.651 75.0495 251.22C75.0495 251.177 75.0926 251.156 75.1788 251.156C75.2435 251.156 75.2974 251.177 75.3405 251.22C75.4052 251.241 75.4375 251.263 75.4375 251.284C75.222 252.95 75.1142 254.467 75.1142 255.834C75.1142 256.004 75.0818 256.133 75.0172 256.218C74.9525 256.282 74.8231 256.314 74.6291 256.314H60.3362ZM72.8183 249.169C72.8183 248.294 72.4733 247.61 71.7835 247.119C71.1152 246.606 70.1451 246.35 68.8732 246.35H64.5077V245.453H68.9055C70.1559 245.453 71.1152 245.239 71.7835 244.812C72.4518 244.385 72.7859 243.787 72.7859 243.018C72.7859 242.954 72.8398 242.922 72.9476 242.922C73.077 242.922 73.1416 242.954 73.1416 243.018L73.1093 245.901L73.1416 247.439C73.1847 248.165 73.2063 248.742 73.2063 249.169C73.2063 249.212 73.1416 249.233 73.0123 249.233C72.8829 249.233 72.8183 249.212 72.8183 249.169ZM107.12 248.08H116.433L116.659 248.977H106.635L107.12 248.08ZM124.291 255.93C124.398 255.93 124.452 255.994 124.452 256.122C124.452 256.25 124.398 256.314 124.291 256.314C123.86 256.314 123.191 256.293 122.286 256.25C121.337 256.207 120.658 256.186 120.249 256.186C119.71 256.186 119.052 256.207 118.276 256.25C117.543 256.293 116.961 256.314 116.53 256.314C116.444 256.314 116.401 256.25 116.401 256.122C116.401 255.994 116.444 255.93 116.53 255.93C117.09 255.93 117.489 255.876 117.726 255.769C117.985 255.641 118.114 255.428 118.114 255.129C118.114 254.766 117.899 254.157 117.468 253.302L110.903 240.455L112.488 237.699L106.053 251.765C105.772 252.384 105.632 252.961 105.632 253.495C105.632 254.264 105.902 254.862 106.441 255.289C107.001 255.716 107.745 255.93 108.672 255.93C108.78 255.93 108.834 255.994 108.834 256.122C108.834 256.25 108.78 256.314 108.672 256.314C108.284 256.314 107.723 256.293 106.99 256.25C106.171 256.207 105.46 256.186 104.856 256.186C104.274 256.186 103.574 256.207 102.754 256.25C102.021 256.293 101.429 256.314 100.976 256.314C100.89 256.314 100.846 256.25 100.846 256.122C100.846 255.994 100.89 255.93 100.976 255.93C101.579 255.93 102.086 255.812 102.496 255.577C102.905 255.321 103.315 254.883 103.724 254.264C104.134 253.623 104.619 252.683 105.18 251.444L112.197 236.161C112.24 236.097 112.337 236.065 112.488 236.065C112.66 236.065 112.757 236.097 112.779 236.161L120.863 251.925C121.618 253.441 122.243 254.488 122.739 255.065C123.234 255.641 123.752 255.93 124.291 255.93ZM155.393 253.591C155.393 254.146 155.436 254.552 155.522 254.808C155.609 255.043 155.77 255.203 156.007 255.289C156.266 255.374 156.676 255.417 157.236 255.417H158.336C160.017 255.417 161.472 254.979 162.701 254.103C163.93 253.206 164.749 251.999 165.159 250.483C165.159 250.44 165.202 250.419 165.288 250.419C165.331 250.419 165.374 250.44 165.417 250.483C165.482 250.504 165.515 250.526 165.515 250.547C165.32 252.662 165.223 254.424 165.223 255.834C165.223 256.004 165.18 256.133 165.094 256.218C165.029 256.282 164.911 256.314 164.738 256.314H149.475C149.432 256.314 149.411 256.25 149.411 256.122C149.411 255.994 149.432 255.93 149.475 255.93C150.165 255.93 150.661 255.876 150.963 255.769C151.286 255.663 151.502 255.46 151.61 255.161C151.739 254.84 151.804 254.36 151.804 253.719V238.885C151.804 238.244 151.739 237.774 151.61 237.475C151.502 237.176 151.286 236.973 150.963 236.866C150.64 236.738 150.144 236.674 149.475 236.674C149.432 236.674 149.411 236.61 149.411 236.482C149.411 236.354 149.432 236.29 149.475 236.29L151.125 236.322C152.116 236.364 152.935 236.386 153.582 236.386C154.229 236.386 155.048 236.364 156.04 236.322L157.689 236.29C157.754 236.29 157.786 236.354 157.786 236.482C157.786 236.61 157.754 236.674 157.689 236.674C157.021 236.674 156.525 236.738 156.202 236.866C155.878 236.973 155.663 237.187 155.555 237.507C155.447 237.806 155.393 238.276 155.393 238.917V253.591ZM196.8 237.026C194.234 237.026 192.391 238.682 191.27 241.993C191.249 242.057 191.184 242.089 191.076 242.089C190.968 242.067 190.915 242.025 190.915 241.961C191.001 241.106 191.098 240.006 191.206 238.66C191.313 237.293 191.367 236.268 191.367 235.585C191.367 235.478 191.421 235.425 191.529 235.425C191.658 235.425 191.723 235.478 191.723 235.585C191.723 236.055 192.337 236.29 193.566 236.29C195.42 236.354 197.587 236.386 200.066 236.386C201.338 236.386 202.685 236.364 204.108 236.322L206.307 236.29C207.126 236.29 207.719 236.236 208.085 236.129C208.473 236.023 208.721 235.809 208.829 235.489C208.851 235.403 208.915 235.36 209.023 235.36C209.153 235.36 209.217 235.403 209.217 235.489C209.153 236.129 209.077 237.155 208.991 238.564C208.926 239.974 208.894 241.106 208.894 241.961C208.894 242.025 208.84 242.057 208.732 242.057C208.624 242.057 208.56 242.025 208.538 241.961C208.215 240.316 207.611 239.088 206.727 238.276C205.843 237.443 204.755 237.026 203.461 237.026C202.836 237.026 202.416 237.165 202.2 237.443C202.006 237.699 201.909 238.201 201.909 238.949V253.719C201.909 254.381 201.974 254.862 202.103 255.161C202.232 255.46 202.48 255.663 202.847 255.769C203.213 255.876 203.795 255.93 204.593 255.93C204.658 255.93 204.69 255.994 204.69 256.122C204.69 256.25 204.658 256.314 204.593 256.314C203.817 256.314 203.203 256.303 202.75 256.282L200.066 256.25L197.447 256.282C196.994 256.303 196.369 256.314 195.571 256.314C195.506 256.314 195.474 256.25 195.474 256.122C195.474 255.994 195.506 255.93 195.571 255.93C196.347 255.93 196.918 255.876 197.285 255.769C197.673 255.663 197.932 255.46 198.061 255.161C198.212 254.84 198.287 254.36 198.287 253.719V238.885C198.287 238.159 198.19 237.667 197.996 237.411C197.802 237.155 197.403 237.026 196.8 237.026ZM248.913 240.711C249.495 239.75 249.786 238.927 249.786 238.244C249.786 237.731 249.625 237.347 249.301 237.091C248.999 236.813 248.557 236.674 247.975 236.674C247.911 236.674 247.878 236.61 247.878 236.482C247.878 236.354 247.911 236.29 247.975 236.29L249.689 236.322C250.681 236.364 251.565 236.386 252.341 236.386C252.707 236.386 253.149 236.364 253.667 236.322L254.863 236.29C254.906 236.29 254.928 236.354 254.928 236.482C254.928 236.61 254.906 236.674 254.863 236.674C254.195 236.674 253.376 237.091 252.406 237.924C251.435 238.735 250.573 239.76 249.819 240.999L245.615 247.952L244.936 247.407L248.913 240.711ZM238.145 239.974C237.347 238.735 236.679 237.881 236.14 237.411C235.623 236.92 235.181 236.674 234.814 236.674C234.75 236.674 234.717 236.61 234.717 236.482C234.717 236.354 234.75 236.29 234.814 236.29L235.817 236.322C236.291 236.364 236.625 236.386 236.819 236.386C237.574 236.386 238.662 236.364 240.085 236.322L242.219 236.29C242.263 236.29 242.284 236.354 242.284 236.482C242.284 236.61 242.263 236.674 242.219 236.674C241.853 236.674 241.562 236.759 241.346 236.93C241.152 237.101 241.055 237.325 241.055 237.603C241.055 237.945 241.206 238.351 241.508 238.821L246.164 246.094L243.06 247.535L238.145 239.974ZM246.456 246.094V253.719C246.456 254.381 246.509 254.862 246.617 255.161C246.725 255.46 246.93 255.663 247.232 255.769C247.555 255.876 248.062 255.93 248.751 255.93C248.816 255.93 248.848 255.994 248.848 256.122C248.848 256.25 248.816 256.314 248.751 256.314C248.04 256.314 247.48 256.303 247.07 256.282L244.645 256.25L242.252 256.282C241.821 256.303 241.239 256.314 240.506 256.314C240.462 256.314 240.441 256.25 240.441 256.122C240.441 255.994 240.462 255.93 240.506 255.93C241.195 255.93 241.702 255.876 242.025 255.769C242.349 255.663 242.564 255.46 242.672 255.161C242.801 254.84 242.866 254.36 242.866 253.719V246.382L246.456 246.094ZM324.565 235.937C325.578 235.937 326.602 236.023 327.637 236.193C328.693 236.343 329.534 236.546 330.159 236.802C330.353 236.866 330.472 236.952 330.515 237.059C330.58 237.144 330.623 237.304 330.644 237.539L331.065 241.993C331.065 242.057 331.011 242.099 330.903 242.121C330.795 242.142 330.72 242.11 330.677 242.025C330.073 240.273 329.211 238.938 328.09 238.02C326.969 237.08 325.621 236.61 324.048 236.61C322.582 236.61 321.267 237.005 320.102 237.795C318.96 238.564 318.054 239.675 317.386 241.127C316.739 242.58 316.416 244.278 316.416 246.222C316.416 248.187 316.75 249.917 317.418 251.412C318.108 252.886 319.046 254.029 320.232 254.84C321.439 255.631 322.819 256.026 324.371 256.026C325.858 256.026 327.109 255.631 328.122 254.84C329.135 254.029 330.095 252.704 331 250.867C331.021 250.803 331.086 250.782 331.194 250.803C331.302 250.825 331.356 250.867 331.356 250.932L330.871 254.904C330.827 255.161 330.784 255.332 330.741 255.417C330.698 255.481 330.58 255.556 330.386 255.641C328.402 256.346 326.397 256.699 324.371 256.699C322.064 256.699 319.995 256.271 318.162 255.417C316.351 254.541 314.929 253.324 313.894 251.765C312.859 250.205 312.342 248.432 312.342 246.446C312.342 244.417 312.87 242.612 313.926 241.031C315.004 239.429 316.47 238.18 318.324 237.283C320.199 236.386 322.28 235.937 324.565 235.937ZM368.856 256.699C366.851 256.699 365.061 256.239 363.488 255.321C361.936 254.381 360.728 253.121 359.866 251.54C359.025 249.938 358.605 248.197 358.605 246.318C358.605 244.118 359.165 242.238 360.286 240.679C361.407 239.098 362.841 237.913 364.587 237.123C366.355 236.332 368.155 235.937 369.987 235.937C372.035 235.937 373.835 236.418 375.388 237.379C376.94 238.319 378.125 239.568 378.945 241.127C379.785 242.687 380.206 244.342 380.206 246.094C380.206 248.037 379.688 249.821 378.654 251.444C377.619 253.067 376.228 254.349 374.482 255.289C372.758 256.229 370.882 256.699 368.856 256.699ZM369.923 255.898C371.13 255.898 372.208 255.556 373.156 254.872C374.127 254.167 374.881 253.153 375.42 251.829C375.959 250.483 376.228 248.881 376.228 247.023C376.228 245.058 375.927 243.306 375.323 241.768C374.719 240.209 373.846 238.992 372.704 238.116C371.561 237.24 370.225 236.802 368.694 236.802C366.732 236.802 365.223 237.539 364.167 239.013C363.11 240.465 362.582 242.505 362.582 245.132C362.582 247.204 362.895 249.063 363.52 250.707C364.167 252.331 365.04 253.601 366.139 254.52C367.26 255.438 368.521 255.898 369.923 255.898ZM423.171 256.314C422.675 256.314 421.759 255.428 420.422 253.655C419.085 251.861 417.469 249.372 415.572 246.19L418.547 245.293C420.336 247.984 421.823 250.088 423.009 251.604C424.216 253.121 425.283 254.221 426.21 254.904C427.137 255.588 428.043 255.93 428.927 255.93C428.97 255.93 428.991 255.994 428.991 256.122C428.991 256.25 428.97 256.314 428.927 256.314H423.171ZM416.218 236.193C418.18 236.193 419.7 236.557 420.778 237.283C421.856 237.988 422.395 238.981 422.395 240.262C422.395 241.48 422.039 242.58 421.328 243.562C420.638 244.545 419.732 245.314 418.611 245.869C417.49 246.403 416.315 246.67 415.086 246.67C414.246 246.67 413.653 246.66 413.308 246.638V253.719C413.308 254.381 413.362 254.862 413.47 255.161C413.577 255.46 413.782 255.663 414.084 255.769C414.407 255.876 414.914 255.93 415.604 255.93C415.647 255.93 415.669 255.994 415.669 256.122C415.669 256.25 415.647 256.314 415.604 256.314C414.892 256.314 414.332 256.303 413.922 256.282L411.465 256.25L409.104 256.282C408.673 256.303 408.091 256.314 407.358 256.314C407.293 256.314 407.261 256.25 407.261 256.122C407.261 255.994 407.293 255.93 407.358 255.93C408.048 255.93 408.544 255.876 408.845 255.769C409.169 255.663 409.384 255.46 409.492 255.161C409.622 254.84 409.686 254.36 409.686 253.719V238.885C409.686 238.244 409.632 237.774 409.525 237.475C409.417 237.176 409.201 236.973 408.878 236.866C408.554 236.738 408.059 236.674 407.39 236.674C407.347 236.674 407.326 236.61 407.326 236.482C407.326 236.354 407.347 236.29 407.39 236.29L409.104 236.322C410.096 236.364 410.883 236.386 411.465 236.386C412.198 236.386 412.963 236.354 413.761 236.29C414.041 236.268 414.386 236.247 414.795 236.225C415.227 236.204 415.701 236.193 416.218 236.193ZM418.708 241.48C418.708 239.728 418.45 238.522 417.932 237.859C417.415 237.197 416.671 236.866 415.701 236.866C414.839 236.866 414.224 237.026 413.858 237.347C413.491 237.667 413.308 238.201 413.308 238.949V245.741C413.825 245.827 414.451 245.869 415.184 245.869C416.434 245.869 417.329 245.528 417.867 244.844C418.428 244.139 418.708 243.018 418.708 241.48ZM459.849 253.591C459.849 254.274 459.924 254.776 460.075 255.097C460.226 255.396 460.506 255.609 460.916 255.737C461.347 255.866 462.026 255.93 462.953 255.93C463.018 255.93 463.05 255.994 463.05 256.122C463.05 256.25 463.018 256.314 462.953 256.314C462.069 256.314 461.379 256.303 460.884 256.282L458.07 256.25L455.71 256.282C455.278 256.303 454.696 256.314 453.963 256.314C453.899 256.314 453.866 256.25 453.866 256.122C453.866 255.994 453.899 255.93 453.963 255.93C454.653 255.93 455.149 255.876 455.451 255.769C455.774 255.663 455.99 255.46 456.098 255.161C456.206 254.84 456.259 254.36 456.259 253.719V238.885C456.259 238.244 456.206 237.774 456.098 237.475C455.99 237.176 455.774 236.973 455.451 236.866C455.128 236.738 454.632 236.674 453.963 236.674C453.899 236.674 453.866 236.61 453.866 236.482C453.866 236.354 453.899 236.29 453.963 236.29L455.677 236.322C456.669 236.364 457.456 236.386 458.038 236.386C458.555 236.386 459.17 236.354 459.881 236.29C460.161 236.268 460.517 236.247 460.948 236.225C461.379 236.204 461.875 236.193 462.436 236.193C464.635 236.193 466.37 236.653 467.642 237.571C468.914 238.468 469.55 239.867 469.55 241.768C469.55 243.093 469.205 244.214 468.515 245.132C467.825 246.051 466.931 246.745 465.831 247.215C464.753 247.685 463.643 247.92 462.5 247.92C461.918 247.92 461.412 247.866 460.981 247.76C460.937 247.76 460.916 247.706 460.916 247.599C460.916 247.535 460.927 247.471 460.948 247.407C460.991 247.343 461.034 247.322 461.078 247.343C461.401 247.429 461.767 247.471 462.177 247.471C463.169 247.471 463.988 247.012 464.635 246.094C465.303 245.175 465.637 243.872 465.637 242.185C465.637 240.497 465.271 239.194 464.538 238.276C463.826 237.358 462.781 236.898 461.401 236.898C460.797 236.898 460.388 237.037 460.172 237.315C459.957 237.592 459.849 238.137 459.849 238.949V253.591ZM496.521 256.667C495.918 256.667 495.433 256.496 495.066 256.154C494.721 255.791 494.549 255.31 494.549 254.712C494.549 254.157 494.721 253.708 495.066 253.367C495.433 253.025 495.918 252.854 496.521 252.854C497.125 252.854 497.589 253.025 497.912 253.367C498.257 253.687 498.429 254.135 498.429 254.712C498.429 255.332 498.257 255.812 497.912 256.154C497.589 256.496 497.125 256.667 496.521 256.667Z" fill="black"/>
<path d="M0 85.438V128.157L207.495 89.2037V128.157H250.611V81.1095L255.997 80.0982L261.384 81.1095V128.157H304.5V89.2037L511.995 128.157V85.438L304.5 46.4847V0H261.384V38.3905L255.997 37.3791L250.611 38.3905V0H207.495V46.4847L0 85.438Z" fill="white"/>
</svg>
